<svg width="22" height="18" viewBox="0 0 22 18" fill="none" xmlns="http://www.w3.org/2000/svg">
<path d="M0.5 5.3C0.5 3.61984 0.5 2.77976 0.82698 2.13803C1.1146 1.57354 1.57354 1.1146 2.13803 0.82698C2.77976 0.5 3.61984 0.5 5.3 0.5H7.17452C7.6637 0.5 7.90829 0.5 8.13846 0.55526C8.34254 0.604254 8.53763 0.685062 8.71657 0.79472C8.9184 0.918403 9.09136 1.09135 9.43726 1.43726L10.5627 2.56274C10.9086 2.90864 11.0816 3.0816 11.2834 3.20528C11.4624 3.31494 11.6575 3.39575 11.8615 3.44474C12.0917 3.5 12.3363 3.5 12.8255 3.5H16.7C18.3802 3.5 19.2202 3.5 19.862 3.82698C20.4265 4.1146 20.8854 4.57354 21.173 5.13803C21.5 5.77976 21.5 6.61984 21.5 8.3V12.7C21.5 14.3802 21.5 15.2202 21.173 15.862C20.8854 16.4265 20.4265 16.8854 19.862 17.173C19.2202 17.5 18.3802 17.5 16.7 17.5H5.3C3.61984 17.5 2.77976 17.5 2.13803 17.173C1.57354 16.8854 1.1146 16.4265 0.82698 15.862C0.5 15.2202 0.5 14.3802 0.5 12.7V5.3Z" fill="#AEBAD6"/>
</svg>
