<svg width="172" height="104" viewBox="0 0 172 104" fill="none" xmlns="http://www.w3.org/2000/svg">
<path d="M34 57V40C34 36.6863 36.6863 34 40 34H111C114.314 34 117 36.6863 117 40V44.4545" stroke="#68759C" stroke-width="1.5"/>
<rect x="82.8058" y="10" width="59.1753" height="51.7784" rx="4" transform="rotate(16.6154 82.8058 10)" fill="#141E3D" stroke="#68759C" stroke-linecap="round" stroke-dasharray="4 4"/>
<rect x="86.129" y="15.7124" width="49.5397" height="30.8173" rx="4" transform="rotate(16.6154 86.129 15.7124)" fill="#232D4D"/>
<path d="M107.961 33.3181L108.829 34.1774C110.689 36.0166 111.618 36.9362 111.55 37.8566C111.529 38.1451 111.445 38.4256 111.305 38.6787C110.858 39.4859 109.576 39.7456 107.013 40.2651L105.815 40.5078C103.502 40.9767 102.345 41.2112 101.635 40.7001C101.412 40.5389 101.224 40.3332 101.083 40.0959C100.638 39.3434 100.975 38.2123 101.651 35.9502L101.979 34.8481C102.654 32.586 102.992 31.4549 103.777 31.0695C104.024 30.9479 104.294 30.8789 104.57 30.8666C105.443 30.8279 106.282 31.658 107.961 33.3181Z" fill="#404B72"/>
<circle cx="7.5" cy="89.5" r="7.5" fill="#343E61"/>
<circle cx="162" cy="10" r="9" stroke="#68759C" stroke-width="1.5" stroke-linecap="round" stroke-dasharray="4 4"/>
<circle cx="155.5" cy="55.5" r="7.5" fill="#343E61"/>
<path d="M21.9377 50.2474C22.3505 50.2818 22.713 49.9751 22.7474 49.5623C22.7818 49.1495 22.4751 48.787 22.0623 48.7526L21.9377 50.2474ZM4.06228 47.2526C3.6495 47.2182 3.28699 47.5249 3.25259 47.9377C3.21819 48.3505 3.52493 48.713 3.93772 48.7474L4.06228 47.2526ZM6.18772 48.9349C6.6005 48.9693 6.96301 48.6626 6.99741 48.2498C7.03181 47.837 6.72507 47.4745 6.31228 47.4401L6.18772 48.9349ZM10.8123 47.8151C10.3995 47.7807 10.037 48.0874 10.0026 48.5002C9.96819 48.913 10.2749 49.2755 10.6877 49.3099L10.8123 47.8151ZM15.1877 49.6849C15.6005 49.7193 15.963 49.4126 15.9974 48.9998C16.0318 48.587 15.7251 48.2245 15.3123 48.1901L15.1877 49.6849ZM19.8123 48.5651C19.3995 48.5307 19.037 48.8374 19.0026 49.2502C18.9682 49.663 19.2749 50.0255 19.6877 50.0599L19.8123 48.5651ZM3.93772 48.7474L6.18772 48.9349L6.31228 47.4401L4.06228 47.2526L3.93772 48.7474ZM10.6877 49.3099L15.1877 49.6849L15.3123 48.1901L10.8123 47.8151L10.6877 49.3099ZM19.6877 50.0599L21.9377 50.2474L22.0623 48.7526L19.8123 48.5651L19.6877 50.0599Z" fill="#4F5C87"/>
<path d="M7.35782 30.3409C6.99379 30.1432 6.53848 30.2781 6.34086 30.6422C6.14324 31.0062 6.27815 31.4615 6.64218 31.6591L7.35782 30.3409ZM24.1422 41.1591C24.5062 41.3568 24.9615 41.2219 25.1591 40.8578C25.3568 40.4938 25.2219 40.0385 24.8578 39.8409L24.1422 41.1591ZM8.82968 32.8466C9.19371 33.0443 9.64902 32.9094 9.84664 32.5453C10.0443 32.1813 9.90935 31.726 9.54532 31.5284L8.82968 32.8466ZM13.9203 33.9034C13.5563 33.7057 13.101 33.8406 12.9034 34.2047C12.7057 34.5687 12.8406 35.024 13.2047 35.2216L13.9203 33.9034ZM17.5797 37.5966C17.9437 37.7943 18.399 37.6594 18.5966 37.2953C18.7943 36.9313 18.6594 36.476 18.2953 36.2784L17.5797 37.5966ZM22.6703 38.6534C22.3063 38.4557 21.851 38.5906 21.6534 38.9547C21.4557 39.3187 21.5906 39.774 21.9547 39.9716L22.6703 38.6534ZM6.64218 31.6591L8.82968 32.8466L9.54532 31.5284L7.35782 30.3409L6.64218 31.6591ZM13.2047 35.2216L17.5797 37.5966L18.2953 36.2784L13.9203 33.9034L13.2047 35.2216ZM21.9547 39.9716L24.1422 41.1591L24.8578 39.8409L22.6703 38.6534L21.9547 39.9716Z" fill="#4F5C87"/>
<path d="M29.7978 34.7633C29.9432 35.1512 30.3755 35.3477 30.7633 35.2022C31.1512 35.0568 31.3477 34.6245 31.2022 34.2367L29.7978 34.7633ZM26.7022 22.2367C26.5568 21.8488 26.1245 21.6523 25.7367 21.7978C25.3488 21.9432 25.1523 22.3755 25.2978 22.7633L26.7022 22.2367ZM25.8603 24.2633C26.0057 24.6512 26.438 24.8477 26.8258 24.7022C27.2137 24.5568 27.4102 24.1245 27.2647 23.7367L25.8603 24.2633ZM28.3897 26.7367C28.2443 26.3488 27.812 26.1523 27.4242 26.2978C27.0363 26.4432 26.8398 26.8755 26.9853 27.2633L28.3897 26.7367ZM28.1103 30.2633C28.2557 30.6512 28.688 30.8477 29.0758 30.7022C29.4637 30.5568 29.6602 30.1245 29.5147 29.7367L28.1103 30.2633ZM30.6397 32.7367C30.4943 32.3488 30.062 32.1523 29.6742 32.2978C29.2863 32.4432 29.0898 32.8755 29.2353 33.2633L30.6397 32.7367ZM25.2978 22.7633L25.8603 24.2633L27.2647 23.7367L26.7022 22.2367L25.2978 22.7633ZM26.9853 27.2633L28.1103 30.2633L29.5147 29.7367L28.3897 26.7367L26.9853 27.2633ZM29.2353 33.2633L29.7978 34.7633L31.2022 34.2367L30.6397 32.7367L29.2353 33.2633Z" fill="#4F5C87"/>
<path d="M33.9727 98.2746L26.5814 64.2746C25.7684 60.5348 28.6173 57 32.4445 57H69.4489C70.7785 57 72.0705 56.5583 73.1219 55.7443L85.3781 46.2557C86.4295 45.4417 87.7215 45 89.0511 45H119.877C123.598 45 126.422 48.3523 125.79 52.0194L117.859 98.0194C117.363 100.897 114.866 103 111.946 103H39.8358C37.0132 103 34.5723 101.033 33.9727 98.2746Z" fill="#343E61" stroke="#4F5C87" stroke-width="1.5"/>
<circle cx="65.5" cy="77.5" r="2.5" fill="#68759C"/>
<circle cx="87.5" cy="77.5" r="2.5" fill="#68759C"/>
<line x1="73.75" y1="85.25" x2="79.25" y2="85.25" stroke="#68759C" stroke-width="1.5" stroke-linecap="round"/>
</svg>
