<svg width="17" height="18" viewBox="0 0 17 18" fill="none" xmlns="http://www.w3.org/2000/svg">
<path d="M6.59586 2.47151L11.434 5.01787C14.3602 6.55802 15.8234 7.3281 16.0735 8.4611C16.1519 8.81609 16.1519 9.18391 16.0735 9.5389C15.8234 10.6719 14.3602 11.442 11.434 12.9821L6.59586 15.5285C3.99866 16.8954 2.70006 17.5789 1.67187 17.2179C1.34752 17.1041 1.05014 16.9245 0.798307 16.6905C0 15.9488 0 14.4813 0 11.5464V6.45364C0 3.51867 0 2.05119 0.798307 1.30945C1.05014 1.07546 1.34752 0.895925 1.67187 0.782055C2.70006 0.421083 3.99866 1.10456 6.59586 2.47151Z" fill="white"/>
</svg>
